<mxfile host="app.diagrams.net" modified="2024-04-16T17:50:53.862Z" agent="Mozilla/5.0 (Macintosh; Intel Mac OS X 10.15; rv:124.0) Gecko/20100101 Firefox/124.0" version="24.0.1" etag="OrvpBxgsTyHsgG0Wlwrh" type="github">
  <diagram name="Page-1" id="VRmVRaxK5VWEo5to7TwO">
    <mxGraphModel>
      <root>
        <mxCell id="0" />
        <mxCell id="1" parent="0" />
      </root>
    </mxGraphModel>
  </diagram>
</mxfile>
